<?xml version="1.0" encoding="UTF-8"?>
<svg width="20px" height="20px" viewBox="0 0 20 20" version="1.1" xmlns="http://www.w3.org/2000/svg" xmlns:xlink="http://www.w3.org/1999/xlink">
    <title>Chat Icon</title>
    <g id="Beautiful-Beginnings-Final" stroke="none" stroke-width="1" fill="none" fill-rule="evenodd">
        <g id="Home---Desktop---Slide-1" transform="translate(-198.000000, -39.000000)" fill-rule="nonzero" stroke-width="0.5">
            <g id="Chat-Icon" transform="translate(199.000000, 40.000000)">
                <path d="M15.75,0 L2.25,0 C1.01074219,0 0,1.01074219 0,2.21835937 L0,12.3117188 C0,13.5509766 1.01074219,14.5300781 2.25,14.5300781 L5.625,14.5300781 L5.625,17.4515625 C5.625,17.8242188 5.8640625,18 6.08554687,18 C6.16883203,18 6.25380469,17.9737875 6.3298125,17.9182969 L10.7208281,14.6241563 L15.7833281,14.6241563 C17.0225859,14.6241563 18.0333281,13.6134141 18.0333281,12.4057969 L18.0333281,2.21835937 C18,1.01074219 17.0191406,0 15.75,0 Z" id="Shape" stroke="#D5DC91" fill="#D5DC91"></path>
                <g id="Group-25" transform="translate(3.000000, 6.000000)" fill="#FFFFFF" stroke="#FFFFFF">
                    <circle id="Oval" cx="1.5" cy="1.5" r="1.5"></circle>
                    <circle id="Oval" cx="6" cy="1.5" r="1.5"></circle>
                    <circle id="Oval" cx="10.5" cy="1.5" r="1.5"></circle>
                </g>
            </g>
        </g>
    </g>
</svg>