<?xml version="1.0" encoding="UTF-8"?>
<svg width="101px" height="100px" viewBox="0 0 101 100" version="1.1" xmlns="http://www.w3.org/2000/svg" xmlns:xlink="http://www.w3.org/1999/xlink">
    <title>Group 2</title>
    <g id="Beautiful-Beginnings-Final" stroke="none" stroke-width="1" fill="none" fill-rule="evenodd">
        <g id="Home---Desktop---Slide-1" transform="translate(-226.000000, -2698.000000)">
            <g id="Benefits" transform="translate(135.500000, 2530.000000)">
                <g id="10%-Off" transform="translate(0.000000, 168.000000)">
                    <g id="Group-2" transform="translate(91.000000, 0.000000)">
                        <circle id="Oval" fill="#FFEFBC" cx="66" cy="15" r="15"></circle>
                        <path d="M1.56525116,37.3899538 C2.43044373,37.3899538 3.13050231,36.6898952 3.13050231,35.8247026 C3.13050231,23.5413942 8.97867194,11.9350569 19.1704135,3.99140726 C21.7569911,2.15810685 25.3766344,3.27530486 26.804926,5.46078679 L47.211888,36.8440724 C47.5053726,37.3116912 48.0140792,37.3899538 48.5227858,37.3899538 C48.8162704,37.3899538 49.1128855,37.3074064 49.375652,37.1361874 C50.1001677,36.6654382 50.3050199,35.6961564 49.8342706,34.9722277 L29.4267217,3.75857616 C28.1940864,1.84779581 26.1201287,0.523984643 23.7722519,0.1235347 C21.4243752,-0.273902134 19.0451934,0.297805851 17.2490677,1.69185766 C6.28643995,10.2406725 0,22.7352898 0,35.8247026 C0,36.8616815 0.700058579,37.3899538 1.56525116,37.3899538 Z M98.6108228,21.7374422 L92.3498182,21.7374422 C88.0336381,21.7374422 84.5235624,25.247518 84.5235624,29.563698 L84.5235624,43.6509584 L3.29876681,43.6509584 C1.5053803,43.6509584 -0.0156525116,45.1624041 0.166307935,46.9458121 C1.35981194,58.7184573 8.89453969,68.9180252 19.8102099,75.061636 C19.4697678,75.2103348 19.1410651,75.1320723 18.7830139,75.1320723 C11.8665603,75.1320723 6.26100462,80.737628 6.26100462,87.4779908 C6.26100462,94.2183535 11.8665603,100 18.7830139,100 C25.6994674,100 31.3050231,94.3944443 31.3050231,87.6540815 C31.3050231,84.1400927 29.8491439,80.9743722 27.5190719,78.7008449 C32.557224,80.4343606 38.0551687,81.2169861 43.8270323,81.2169861 C49.6145485,81.2169861 55.1281457,80.229704 60.18782,78.4817097 C57.8360302,80.9430672 56.3490416,84.1127008 56.3490416,87.4779908 C56.3490416,94.3944443 61.9545973,100 68.8710508,100 C75.7875044,100 81.3930601,94.3944443 81.3930601,87.6540815 C81.3930601,80.9137187 75.7875044,75.1320723 68.8710508,75.1320723 C68.5153475,75.1320723 68.1864491,75.2044651 67.8383764,75.2335201 C79.769112,68.5188861 87.6540647,56.9751589 87.6540647,43.6509584 L87.6540647,29.563698 C87.6540647,26.9751639 89.7612841,24.8718577 92.3498182,24.8718577 L98.6108228,24.8718577 C99.4760154,24.8718577 100.176074,24.1671033 100.176074,23.3019108 C100.176074,22.5983304 99.4717109,21.7374422 98.6108228,21.7374422 Z M28.1745208,87.4779908 C28.1745208,92.6570155 23.9620386,96.8694977 18.7830139,96.8694977 C13.6039891,96.8694977 9.39150693,92.6570155 9.39150693,87.4779908 C9.39150693,82.298966 13.6039891,78.0864838 18.7830139,78.0864838 C23.9620386,78.0864838 28.1745208,82.4691871 28.1745208,87.4779908 Z M68.8710508,78.0864838 C74.0500756,78.0864838 78.2625578,82.298966 78.2625578,87.4779908 C78.2625578,92.6570155 74.0500756,96.8694977 68.8710508,96.8694977 C63.6920261,96.8694977 59.4795439,92.6570155 59.4795439,87.4779908 C59.4795439,82.4691871 63.6861564,78.0864838 68.8710508,78.0864838 Z M43.8270323,78.0864838 C22.8722325,78.0864838 5.06750062,64.2692293 3.30659307,46.7814607 L84.3670373,46.7814607 C82.4887359,64.4883644 65.0166199,78.0864838 43.8270323,78.0864838 Z" id="Shape" fill="#111111" fill-rule="nonzero"></path>
                    </g>
                </g>
            </g>
        </g>
    </g>
</svg>