<?xml version="1.0" encoding="UTF-8"?>
<svg width="126px" height="100px" viewBox="0 0 126 100" version="1.1" xmlns="http://www.w3.org/2000/svg" xmlns:xlink="http://www.w3.org/1999/xlink">
    <title>gifts</title>
    <g id="Beautiful-Beginnings-Final" stroke="none" stroke-width="1" fill="none" fill-rule="evenodd">
        <g id="Home---Desktop---Slide-1" transform="translate(-1098.000000, -2698.000000)">
            <g id="Benefits" transform="translate(135.500000, 2530.000000)">
                <g id="Free-Gift-Wrapping" transform="translate(882.000000, 168.000000)">
                    <g id="gifts" transform="translate(81.000000, 0.000000)">
                        <path d="M112.499981,43.5742282 L109.431622,43.5742282 C111.319903,41.5859473 112.499981,38.8222759 112.499981,35.7617295 C112.499981,29.7304805 107.945294,24.8242313 102.347639,24.8242313 C97.2753743,24.8242313 93.8144374,26.521106 84.3749859,41.6054785 C74.9355343,26.5214967 71.4745974,24.8242313 66.4023326,24.8242313 C60.8046773,24.8242313 56.2499927,29.7304805 56.2499927,35.7617295 C56.2499927,38.8242313 57.4310451,41.5879004 59.3183494,43.5742282 L56.2499927,43.5742282 C49.3456949,43.5742282 43.7499927,49.1718835 43.7499927,56.0761792 L43.7499927,87.326174 C43.7499927,94.3945322 49.3554605,100 56.2499927,100 L112.499981,100 C119.404277,100 124.999979,94.4042978 124.999979,87.5000021 L124.999979,56.0742261 C124.999979,49.335946 119.394511,43.5742282 112.499981,43.5742282 Z M66.2304577,27.9492308 C69.4531134,27.9492308 72.0156129,27.9492308 81.7558457,43.5742282 L66.2304577,43.5742282 C62.3554583,43.5742282 59.2031151,40.0683694 59.2031151,35.7617295 C59.2031151,31.4550896 62.5195208,27.9492308 66.2304577,27.9492308 Z M82.8124861,96.6992193 L56.2499906,96.6992193 C51.0800696,96.6992193 46.8749922,92.4941419 46.8749922,87.3242209 L46.8749922,73.2617232 L82.8124861,73.2617232 L82.8124861,96.6992193 Z M82.8124861,70.1367237 L46.8749922,70.1367237 L46.8749922,56.0742261 C46.8749922,50.9043051 51.0800696,46.6992277 56.2499906,46.6992277 L82.8124861,46.6992277 L82.8124861,70.1367237 Z M102.343733,27.9492308 C106.218732,27.9492308 109.371075,31.4550896 109.371075,35.7617295 C109.371075,40.0683694 106.218732,43.5742282 102.343733,43.5742282 L86.8183448,43.5742282 C96.5624838,27.9492308 99.1210772,27.9492308 102.343733,27.9492308 Z M121.87498,87.3242209 C121.87498,92.4941419 117.669902,96.6992193 112.499981,96.6992193 L86.1132668,96.6992193 L86.1132668,73.2617232 L121.87498,73.2617232 L121.87498,87.3242209 Z M121.87498,70.1367237 L86.1132668,70.1367237 L86.1132668,46.6992277 L112.499981,46.6992277 C117.669902,46.6992277 121.87498,50.9043051 121.87498,56.0742261 L121.87498,70.1367237 Z M35.937494,96.6992193 L9.37499843,96.6992193 C5.92382713,96.6992193 3.12499948,93.9003916 3.12499948,90.4492203 L3.12499948,27.9492308 C3.12499948,24.4980595 5.92382713,21.6992319 9.37499843,21.6992319 L48.4374919,21.6992319 C49.3003824,21.6992319 50,20.9996226 50,20.1367321 C50,19.2738416 49.3003824,18.5742324 48.4374919,18.5742324 L35.4687441,18.5742324 L49.2285074,10.54689 C49.9609291,10.2851713 50.2148353,9.32814017 49.7851479,8.58204655 C49.3554605,7.8261873 48.3788982,7.58204672 47.4804608,8.02149977 L31.2304635,17.6035294 L38.9062435,2.25196948 C39.2773372,1.48380555 38.9648372,0.543766645 38.2031186,0.159313584 C37.4218687,-0.20701448 36.4843689,0.0860714086 36.093744,0.861344716 L28.1171828,16.8164202 L20.1406216,0.861344716 C19.7656217,0.0860714086 18.830075,-0.213069166 18.0507782,0.159313584 C17.279294,0.543766645 16.9687472,1.48380555 17.3515596,2.25196948 L25.0195271,17.6035294 L8.59960794,8.02149977 C7.85546744,7.58204672 6.89648322,7.8261873 6.46288954,8.58204655 C6.02734274,9.32814017 6.28124895,10.2851713 7.02538945,10.7187649 L20.7851528,18.7461073 L9.37499843,18.7461073 C4.19726492,18.7461073 0,22.9433723 0,28.1211058 L0,90.4492203 C0,95.6269539 4.19726492,99.8242188 9.37499843,99.8242188 L35.937494,99.8242188 C36.8003845,99.8242188 37.5,99.1246095 37.5,98.261719 C37.5,97.3988286 36.7968688,96.6992193 35.937494,96.6992193 Z" id="Shape" fill="#111111" fill-rule="nonzero"></path>
                        <circle id="Oval" fill="#FFCCCC" cx="23" cy="42" r="15"></circle>
                    </g>
                </g>
            </g>
        </g>
    </g>
</svg>