<?xml version="1.0" encoding="UTF-8"?>
<svg width="660px" height="40px" viewBox="0 0 660 40" version="1.1" xmlns="http://www.w3.org/2000/svg" xmlns:xlink="http://www.w3.org/1999/xlink">
    <title>Logo</title>
    <g id="Beautiful-Beginnings-Final" stroke="none" stroke-width="1" fill="none" fill-rule="evenodd">
        <g id="Home---Desktop---Slide-1" transform="translate(-390.000000, -29.000000)">
            <g id="Logo" transform="translate(390.000000, 29.000000)">
                <g id="Beautiful-Beginnings" fill="#111111" fill-rule="nonzero">
                    <path d="M0,27.483871 L21.8709677,27.483871 C30.3096774,27.483871 35.1870968,25.1612903 35.1870968,20.2064516 C35.1870968,16.2580645 31.0451613,13.8193548 23.6129032,13.2387097 L23.6129032,13.083871 C30.1548387,12.2709677 33.5225806,9.87096774 33.5225806,6.96774194 C33.5225806,4.87741935 32.2451613,3.13548387 30,2.16774194 C27.483871,1.08387097 23.883871,0.812903226 20.2064516,0.812903226 L0,0.812903226 L0,1.50967742 L1.66451613,1.89677419 C5.22580645,2.70967742 5.84516129,3.71612903 5.84516129,6.58064516 L5.84516129,21.716129 C5.84516129,24.5806452 5.22580645,25.5870968 1.66451613,26.4 L0,26.7870968 L0,27.483871 Z M22.8387097,12.5806452 L22.8387097,12.5419355 C25.5483871,10.9935484 26.2064516,9.21290323 26.2064516,6.96774194 C26.2064516,4.4516129 24.9677419,2.59354839 22.2580645,1.62580645 L22.2580645,1.58709677 C27.9870968,1.89677419 32.516129,3.09677419 32.516129,6.8516129 C32.516129,9.40645161 29.5741935,11.4193548 22.8387097,12.5806452 Z M3.9483871,26.5548387 L3.9483871,26.516129 C6.19354839,25.6645161 6.8516129,24.2322581 6.8516129,21.716129 L6.8516129,6.58064516 C6.8516129,3.90967742 6.23225806,2.63225806 3.90967742,1.78064516 L3.90967742,1.74193548 L12.9677419,1.74193548 L12.9677419,26.5548387 L3.9483871,26.5548387 Z M13.9741935,12.7741935 L13.9741935,1.81935484 L18.2709677,1.81935484 C22.683871,1.81935484 25.2,3.29032258 25.2,6.96774194 C25.2,10.6451613 22.683871,12.7741935 18.2709677,12.7741935 L13.9741935,12.7741935 Z M9.44516129,11.0322581 L10.3741935,11.0322581 L10.3741935,3.6 L9.44516129,3.6 L9.44516129,11.0322581 Z M27.4064516,10.5290323 C29.0322581,9.67741935 30.0387097,8.4 30.0387097,6.96774194 C30.0387097,5.53548387 29.3032258,4.37419355 27.8709677,3.6 L27.483871,3.87096774 C28.4903226,4.72258065 29.1096774,5.72903226 29.1096774,6.96774194 C29.1096774,8.32258065 28.1419355,9.44516129 27.0580645,10.1806452 L27.4064516,10.5290323 Z M9.90967742,15.5225806 L11.4193548,14.0129032 L9.90967742,12.5032258 L8.4,14.0129032 L9.90967742,15.5225806 Z M13.9741935,26.4774194 L13.9741935,13.7806452 L19.9354839,13.7806452 C24.4258065,13.7806452 26.8645161,15.8322581 26.8645161,19.8193548 C26.8645161,23.7677419 24.3483871,26.4774194 19.5483871,26.4774194 L13.9741935,26.4774194 Z M23.1870968,26.7483871 L23.1870968,26.7096774 C26.4774194,25.316129 27.8709677,22.916129 27.8709677,19.8193548 C27.8709677,17.4193548 27.0193548,15.2903226 24.6967742,14.0903226 L24.6967742,14.0516129 C31.0064516,14.9032258 34.1806452,17.1096774 34.1806452,20.2064516 C34.1806452,23.883871 30.9290323,26.4 23.1870968,26.7483871 Z M28.7225806,24.7354839 C30.2709677,23.6516129 31.7419355,21.9483871 31.7419355,20.0903226 C31.7419355,18.3096774 30.5806452,16.9935484 28.8387097,15.9483871 L28.5290323,16.2193548 C29.8064516,17.3419355 30.6580645,18.5032258 30.6580645,20.0903226 C30.6580645,21.5612903 29.7290323,23.1483871 28.3354839,24.4645161 L28.7225806,24.7354839 Z M9.44516129,24.6967742 L10.3741935,24.6967742 L10.3741935,16.9935484 L9.44516129,16.9935484 L9.44516129,24.6967742 Z" id="B"></path>
                    <path d="M38.283871,27.483871 L70.4516129,27.483871 L70.4516129,17.5741935 L69.7548387,17.5741935 L68.7870968,20.0516129 C67.2774194,23.8064516 64.3354839,26.4774194 59.7290323,26.4774194 L52.2580645,26.4774194 L52.2580645,13.9741935 L54.2322581,13.9741935 C57.5612903,13.9741935 59.4580645,14.9806452 60.3870968,17.7677419 L61.2,20.2451613 L61.8193548,20.2451613 L61.8193548,6.77419355 L61.2,6.77419355 L60.3870968,9.29032258 C59.4967742,12 57.5612903,13.0451613 54.2322581,13.0451613 L52.2580645,13.0451613 L52.2580645,1.81935484 L60.5419355,1.81935484 C64.683871,1.81935484 67.8580645,4.52903226 69.0193548,8.4 L69.483871,9.9483871 L70.1806452,9.9483871 L70.1806452,0.812903226 L38.283871,0.812903226 L38.283871,1.50967742 L39.9483871,1.89677419 C43.5096774,2.70967742 44.1290323,3.71612903 44.1290323,6.58064516 L44.1290323,21.716129 C44.1290323,24.5806452 43.5096774,25.5870968 39.9483871,26.4 L38.283871,26.7870968 L38.283871,27.483871 Z M42.1548387,26.5548387 L42.1548387,26.516129 C44.4774194,25.6258065 45.1354839,24.2709677 45.1354839,21.716129 L45.1354839,6.58064516 C45.1354839,4.02580645 44.4774194,2.63225806 42.116129,1.78064516 L42.116129,1.74193548 L51.2516129,1.74193548 L51.2516129,26.5548387 L42.1548387,26.5548387 Z M69.2129032,6.50322581 C68.2451613,4.02580645 66.5032258,2.59354839 64.2580645,1.78064516 L64.2580645,1.74193548 L69.2516129,1.74193548 L69.2516129,6.50322581 L69.2129032,6.50322581 Z M47.7290323,11.0322581 L48.6580645,11.0322581 L48.6580645,3.6 L47.7290323,3.6 L47.7290323,11.0322581 Z M60.8516129,17.0322581 C60.116129,15.0580645 59.1483871,14.0129032 57.1354839,13.5096774 L57.1354839,13.4709677 C59.1870968,12.9290323 60.1548387,12 60.8516129,10.1419355 L60.8903226,10.1419355 L60.8903226,17.0322581 L60.8516129,17.0322581 Z M48.1935484,15.5225806 L49.7032258,14.0129032 L48.1935484,12.5032258 L46.683871,14.0129032 L48.1935484,15.5225806 Z M47.7290323,24.6967742 L48.6580645,24.6967742 L48.6580645,16.9935484 L47.7290323,16.9935484 L47.7290323,24.6967742 Z M63.6774194,26.5548387 L63.6774194,26.516129 C66.5806452,25.6258065 68.4387097,23.4580645 69.483871,20.5935484 L69.5225806,20.5935484 L69.5225806,26.5548387 L63.6774194,26.5548387 Z" id="e"></path>
                    <path d="M71.6903226,27.483871 L83.2258065,27.483871 L83.2258065,26.7870968 L82.1032258,26.516129 C79.8193548,25.9741935 78.6193548,24.6193548 78.6193548,22.7225806 C78.6193548,21.8322581 78.9677419,20.6322581 79.3935484,19.8193548 L79.4709677,19.6645161 L91.7032258,19.6645161 L93.4451613,22.6451613 C93.8709677,23.3806452 94.1032258,24 94.1032258,24.5419355 C94.1032258,25.5870968 93.1354839,26.1677419 91.2774194,26.516129 L89.8451613,26.7870968 L89.8451613,27.483871 L107.729032,27.483871 L107.729032,26.7870968 L107.148387,26.6709677 C105.6,26.3612903 104.36129,25.7419355 103.354839,23.9612903 L89.3806452,0 L88.8387097,0 L78,20.3225806 C76.1806452,23.7290323 74.7483871,26.0516129 72.3483871,26.6322581 L71.6903226,26.7870968 L71.6903226,27.483871 Z M93.8709677,26.5548387 L93.8709677,26.516129 C94.7225806,26.0129032 95.0709677,25.3548387 95.0709677,24.5419355 C95.0709677,23.8451613 94.8,23.0709677 94.2967742,22.1806452 L85.7806452,7.70322581 L89.1096774,1.43225806 L102.503226,24.4258065 C103.045161,25.2774194 103.625806,26.0129032 104.477419,26.516129 L104.477419,26.5548387 L93.8709677,26.5548387 Z M91.7806452,12.9290323 L92.5548387,12.4645161 L88.7225806,5.76774194 L88.2193548,6.73548387 L91.7806452,12.9290323 Z M79.9741935,18.7354839 L85.2774194,8.67096774 L91.1612903,18.7354839 L79.9741935,18.7354839 Z M94.6451613,16.916129 L95.1870968,14.8645161 L93.1354839,14.283871 L92.5548387,16.3741935 L94.6451613,16.916129 Z M98.6322581,24.6967742 L99.716129,24.6967742 L95.9612903,18.2709677 L95.1870968,18.7354839 L98.6322581,24.6967742 Z M74.516129,26.5548387 L74.516129,26.516129 C75.7935484,25.6258065 76.7225806,24.3870968 77.7290323,22.6064516 L77.7677419,22.6064516 C77.7677419,24.4258065 78.5032258,25.6645161 79.8580645,26.516129 L79.8580645,26.5548387 L74.516129,26.5548387 Z" id="a"></path>
                    <path d="M123.677419,28.1419355 C131.109677,28.1419355 135.135484,24.4645161 135.135484,18.5806452 L135.135484,8.67096774 C135.135484,4.83870968 136.567742,3.17419355 139.432258,2.12903226 L141.096774,1.50967742 L141.096774,0.812903226 L128.206452,0.812903226 L128.206452,1.50967742 L129.793548,2.12903226 C132.541935,3.21290323 134.129032,4.83870968 134.129032,8.67096774 L134.129032,19.1225806 C134.129032,23.6516129 130.296774,26.9806452 125.303226,26.9806452 C120.851613,26.9806452 118.258065,24.7741935 118.258065,18.5806452 L118.258065,6.58064516 C118.258065,3.71612903 118.877419,2.70967742 122.43871,1.89677419 L124.103226,1.50967742 L124.103226,0.812903226 L104.283871,0.812903226 L104.283871,1.50967742 L105.948387,1.89677419 C109.509677,2.70967742 110.129032,3.71612903 110.129032,6.58064516 L110.129032,17.2258065 C110.129032,25.2387097 115.23871,28.1419355 123.677419,28.1419355 Z M121.548387,27.2516129 C114.154839,26.4774194 111.058065,23.3419355 111.058065,17.2258065 L111.058065,6.58064516 C111.058065,3.98709677 110.43871,2.67096774 108.348387,1.78064516 L108.348387,1.74193548 L120.03871,1.74193548 L120.03871,1.78064516 C117.948387,2.63225806 117.329032,3.98709677 117.329032,6.58064516 L117.329032,18.5806452 C117.329032,22.8774194 118.567742,25.8193548 121.587097,27.2129032 L121.548387,27.2516129 Z M134.593548,5.96129032 C134.012903,3.9483871 132.929032,2.70967742 131.032258,1.78064516 L131.032258,1.74193548 L138.193548,1.74193548 L138.193548,1.78064516 C136.258065,2.63225806 135.174194,3.87096774 134.632258,5.96129032 L134.593548,5.96129032 Z M113.729032,11.0322581 L114.658065,11.0322581 L114.658065,3.6 L113.729032,3.6 L113.729032,11.0322581 Z M114.193548,15.5225806 L115.703226,14.0129032 L114.193548,12.5032258 L112.683871,14.0129032 L114.193548,15.5225806 Z M115.858065,24.3870968 L116.36129,24.3870968 C114.658065,22.2193548 114.658065,19.9354839 114.658065,17.5741935 L114.658065,16.9935484 L113.729032,16.9935484 L113.729032,17.5741935 C113.729032,20.0516129 114.077419,22.7612903 115.858065,24.3870968 Z" id="u"></path>
                    <path d="M150.348387,27.483871 L170.941935,27.483871 L170.941935,26.7870968 L168.890323,26.4 C165.290323,25.7419355 164.787097,24.5806452 164.787097,21.716129 L164.787097,1.74193548 L167.225806,1.74193548 C171.174194,1.74193548 173.225806,4.25806452 175.625806,9.01935484 L176.864516,11.4967742 L177.56129,11.4967742 L177.56129,0.812903226 L143.845161,0.812903226 L143.845161,11.4967742 L144.541935,11.4967742 L145.780645,9.01935484 C148.180645,4.25806452 150.232258,1.74193548 154.180645,1.74193548 L156.503226,1.74193548 L156.503226,21.716129 C156.503226,24.5806452 156,25.7419355 152.4,26.4 L150.348387,26.7870968 L150.348387,27.483871 Z M144.774194,8.90322581 L144.774194,1.74193548 L150.232258,1.74193548 L150.232258,1.78064516 C148.219355,2.86451613 146.941935,4.68387097 144.812903,8.90322581 L144.774194,8.90322581 Z M155.070968,26.5548387 L155.070968,26.516129 C156.890323,25.6645161 157.432258,24.2709677 157.432258,21.716129 L157.432258,1.74193548 L163.858065,1.74193548 L163.858065,21.716129 C163.858065,24.2709677 164.4,25.6645161 166.219355,26.516129 L166.219355,26.5548387 L155.070968,26.5548387 Z M176.593548,8.90322581 C174.464516,4.68387097 173.187097,2.86451613 171.174194,1.78064516 L171.174194,1.74193548 L176.632258,1.74193548 L176.632258,8.90322581 L176.593548,8.90322581 Z M160.180645,11.0322581 L161.109677,11.0322581 L161.109677,3.6 L160.180645,3.6 L160.180645,11.0322581 Z M160.645161,15.5225806 L162.154839,14.0129032 L160.645161,12.5032258 L159.135484,14.0129032 L160.645161,15.5225806 Z M160.180645,24.6967742 L161.109677,24.6967742 L161.109677,16.9935484 L160.180645,16.9935484 L160.180645,24.6967742 Z" id="t"></path>
                    <path d="M180.464516,27.483871 L200.283871,27.483871 L200.283871,26.7870968 L198.619355,26.4 C195.058065,25.5870968 194.43871,24.5806452 194.43871,21.716129 L194.43871,6.58064516 C194.43871,3.71612903 195.058065,2.70967742 198.619355,1.89677419 L200.283871,1.50967742 L200.283871,0.812903226 L180.464516,0.812903226 L180.464516,1.50967742 L182.129032,1.89677419 C185.690323,2.70967742 186.309677,3.71612903 186.309677,6.58064516 L186.309677,21.716129 C186.309677,24.5806452 185.690323,25.5870968 182.129032,26.4 L180.464516,26.7870968 L180.464516,27.483871 Z M184.490323,26.5548387 L184.490323,26.516129 C186.619355,25.6645161 187.316129,24.3096774 187.316129,21.716129 L187.316129,6.58064516 C187.316129,3.98709677 186.658065,2.67096774 184.606452,1.78064516 L184.606452,1.74193548 L196.064516,1.74193548 L196.064516,1.78064516 C194.051613,2.67096774 193.432258,4.02580645 193.432258,6.58064516 L193.432258,21.716129 C193.432258,24.2709677 194.090323,25.6258065 196.064516,26.516129 L196.064516,26.5548387 L184.490323,26.5548387 Z M189.909677,11.0322581 L190.83871,11.0322581 L190.83871,3.6 L189.909677,3.6 L189.909677,11.0322581 Z M190.374194,15.5225806 L191.883871,14.0129032 L190.374194,12.5032258 L188.864516,14.0129032 L190.374194,15.5225806 Z M189.909677,24.6967742 L190.83871,24.6967742 L190.83871,16.9935484 L189.909677,16.9935484 L189.909677,24.6967742 Z" id="i"></path>
                    <path d="M202.993548,27.483871 L223.2,27.483871 L223.2,26.7870968 L221.148387,26.4 C217.548387,25.7032258 216.967742,24.5806452 216.967742,21.716129 L216.967742,14.4387097 L218.709677,14.4387097 C222.03871,14.4387097 223.858065,15.1354839 224.864516,18.1935484 L225.677419,20.7096774 L226.296774,20.7096774 L226.296774,7.23870968 L225.677419,7.23870968 L224.864516,9.75483871 C223.858065,12.8129032 222.03871,13.5096774 218.709677,13.5096774 L216.967742,13.5096774 L216.967742,1.81935484 L224.864516,1.81935484 C229.277419,1.81935484 232.335484,5.03225806 233.380645,8.78709677 L233.806452,10.3354839 L234.503226,10.3354839 L234.503226,0.812903226 L202.993548,0.812903226 L202.993548,1.50967742 L204.658065,1.89677419 C208.219355,2.70967742 208.83871,3.71612903 208.83871,6.58064516 L208.83871,21.716129 C208.83871,24.5806452 208.219355,25.5870968 204.658065,26.4 L202.993548,26.7870968 L202.993548,27.483871 Z M206.864516,26.5548387 L206.864516,26.516129 C209.187097,25.6258065 209.845161,24.2709677 209.845161,21.716129 L209.845161,6.58064516 C209.845161,4.02580645 209.187097,2.63225806 206.825806,1.78064516 L206.825806,1.74193548 L215.96129,1.74193548 L215.96129,21.716129 C215.96129,24.2709677 216.503226,25.6258065 218.748387,26.516129 L218.748387,26.5548387 L206.864516,26.5548387 Z M233.574194,7.08387097 C232.567742,4.41290323 230.787097,2.70967742 228.270968,1.78064516 L228.270968,1.74193548 L233.612903,1.74193548 L233.612903,7.08387097 L233.574194,7.08387097 Z M212.43871,11.0322581 L213.367742,11.0322581 L213.367742,3.6 L212.43871,3.6 L212.43871,11.0322581 Z M225.329032,17.0709677 C224.632258,15.4064516 223.703226,14.516129 222.116129,14.0129032 L222.116129,13.9354839 C223.703226,13.4322581 224.632258,12.5419355 225.329032,10.9548387 L225.367742,10.9548387 L225.367742,17.0709677 L225.329032,17.0709677 Z M212.903226,15.5225806 L214.412903,14.0129032 L212.903226,12.5032258 L211.393548,14.0129032 L212.903226,15.5225806 Z M212.43871,24.6967742 L213.367742,24.6967742 L213.367742,16.9935484 L212.43871,16.9935484 L212.43871,24.6967742 Z" id="f"></path>
                    <path d="M256.645161,28.1419355 C264.077419,28.1419355 268.103226,24.4645161 268.103226,18.5806452 L268.103226,8.67096774 C268.103226,4.83870968 269.535484,3.17419355 272.4,2.12903226 L274.064516,1.50967742 L274.064516,0.812903226 L261.174194,0.812903226 L261.174194,1.50967742 L262.76129,2.12903226 C265.509677,3.21290323 267.096774,4.83870968 267.096774,8.67096774 L267.096774,19.1225806 C267.096774,23.6516129 263.264516,26.9806452 258.270968,26.9806452 C253.819355,26.9806452 251.225806,24.7741935 251.225806,18.5806452 L251.225806,6.58064516 C251.225806,3.71612903 251.845161,2.70967742 255.406452,1.89677419 L257.070968,1.50967742 L257.070968,0.812903226 L237.251613,0.812903226 L237.251613,1.50967742 L238.916129,1.89677419 C242.477419,2.70967742 243.096774,3.71612903 243.096774,6.58064516 L243.096774,17.2258065 C243.096774,25.2387097 248.206452,28.1419355 256.645161,28.1419355 Z M254.516129,27.2516129 C247.122581,26.4774194 244.025806,23.3419355 244.025806,17.2258065 L244.025806,6.58064516 C244.025806,3.98709677 243.406452,2.67096774 241.316129,1.78064516 L241.316129,1.74193548 L253.006452,1.74193548 L253.006452,1.78064516 C250.916129,2.63225806 250.296774,3.98709677 250.296774,6.58064516 L250.296774,18.5806452 C250.296774,22.8774194 251.535484,25.8193548 254.554839,27.2129032 L254.516129,27.2516129 Z M267.56129,5.96129032 C266.980645,3.9483871 265.896774,2.70967742 264,1.78064516 L264,1.74193548 L271.16129,1.74193548 L271.16129,1.78064516 C269.225806,2.63225806 268.141935,3.87096774 267.6,5.96129032 L267.56129,5.96129032 Z M246.696774,11.0322581 L247.625806,11.0322581 L247.625806,3.6 L246.696774,3.6 L246.696774,11.0322581 Z M247.16129,15.5225806 L248.670968,14.0129032 L247.16129,12.5032258 L245.651613,14.0129032 L247.16129,15.5225806 Z M248.825806,24.3870968 L249.329032,24.3870968 C247.625806,22.2193548 247.625806,19.9354839 247.625806,17.5741935 L247.625806,16.9935484 L246.696774,16.9935484 L246.696774,17.5741935 C246.696774,20.0516129 247.045161,22.7612903 248.825806,24.3870968 Z" id="u"></path>
                    <path d="M276.232258,27.483871 L306.774194,27.483871 L306.774194,16.8 L306.077419,16.8 L305.148387,19.6645161 C303.948387,23.4967742 300.735484,26.4774194 296.051613,26.4774194 L290.206452,26.4774194 L290.206452,6.58064516 C290.206452,3.71612903 290.787097,2.55483871 294.387097,1.89677419 L296.43871,1.50967742 L296.43871,0.812903226 L276.232258,0.812903226 L276.232258,1.50967742 L277.896774,1.89677419 C281.458065,2.70967742 282.077419,3.71612903 282.077419,6.58064516 L282.077419,21.716129 C282.077419,24.5806452 281.458065,25.5870968 277.896774,26.4 L276.232258,26.7870968 L276.232258,27.483871 Z M280.258065,26.516129 L280.258065,26.4774194 C282.425806,25.7032258 283.083871,24.5419355 283.083871,21.716129 L283.083871,6.58064516 C283.083871,3.79354839 282.425806,2.59354839 280.103226,1.78064516 L280.103226,1.74193548 L291.870968,1.74193548 L291.870968,1.78064516 C289.819355,2.59354839 289.2,3.87096774 289.2,6.58064516 L289.2,26.516129 L280.258065,26.516129 Z M285.677419,11.0322581 L286.606452,11.0322581 L286.606452,3.6 L285.677419,3.6 L285.677419,11.0322581 Z M286.141935,15.5225806 L287.651613,14.0129032 L286.141935,12.5032258 L284.632258,14.0129032 L286.141935,15.5225806 Z M285.677419,24.6967742 L286.606452,24.6967742 L286.606452,16.9935484 L285.677419,16.9935484 L285.677419,24.6967742 Z M300.232258,26.5548387 L300.232258,26.516129 C302.864516,25.4322581 304.722581,23.3806452 305.806452,20.516129 L305.845161,20.516129 L305.845161,26.5548387 L300.232258,26.5548387 Z" id="l"></path>
                    <path d="M324.387097,27.483871 L346.258065,27.483871 C354.696774,27.483871 359.574194,25.1612903 359.574194,20.2064516 C359.574194,16.2580645 355.432258,13.8193548 348,13.2387097 L348,13.083871 C354.541935,12.2709677 357.909677,9.87096774 357.909677,6.96774194 C357.909677,4.87741935 356.632258,3.13548387 354.387097,2.16774194 C351.870968,1.08387097 348.270968,0.812903226 344.593548,0.812903226 L324.387097,0.812903226 L324.387097,1.50967742 L326.051613,1.89677419 C329.612903,2.70967742 330.232258,3.71612903 330.232258,6.58064516 L330.232258,21.716129 C330.232258,24.5806452 329.612903,25.5870968 326.051613,26.4 L324.387097,26.7870968 L324.387097,27.483871 Z M347.225806,12.5806452 L347.225806,12.5419355 C349.935484,10.9935484 350.593548,9.21290323 350.593548,6.96774194 C350.593548,4.4516129 349.354839,2.59354839 346.645161,1.62580645 L346.645161,1.58709677 C352.374194,1.89677419 356.903226,3.09677419 356.903226,6.8516129 C356.903226,9.40645161 353.96129,11.4193548 347.225806,12.5806452 Z M328.335484,26.5548387 L328.335484,26.516129 C330.580645,25.6645161 331.23871,24.2322581 331.23871,21.716129 L331.23871,6.58064516 C331.23871,3.90967742 330.619355,2.63225806 328.296774,1.78064516 L328.296774,1.74193548 L337.354839,1.74193548 L337.354839,26.5548387 L328.335484,26.5548387 Z M338.36129,12.7741935 L338.36129,1.81935484 L342.658065,1.81935484 C347.070968,1.81935484 349.587097,3.29032258 349.587097,6.96774194 C349.587097,10.6451613 347.070968,12.7741935 342.658065,12.7741935 L338.36129,12.7741935 Z M333.832258,11.0322581 L334.76129,11.0322581 L334.76129,3.6 L333.832258,3.6 L333.832258,11.0322581 Z M351.793548,10.5290323 C353.419355,9.67741935 354.425806,8.4 354.425806,6.96774194 C354.425806,5.53548387 353.690323,4.37419355 352.258065,3.6 L351.870968,3.87096774 C352.877419,4.72258065 353.496774,5.72903226 353.496774,6.96774194 C353.496774,8.32258065 352.529032,9.44516129 351.445161,10.1806452 L351.793548,10.5290323 Z M334.296774,15.5225806 L335.806452,14.0129032 L334.296774,12.5032258 L332.787097,14.0129032 L334.296774,15.5225806 Z M338.36129,26.4774194 L338.36129,13.7806452 L344.322581,13.7806452 C348.812903,13.7806452 351.251613,15.8322581 351.251613,19.8193548 C351.251613,23.7677419 348.735484,26.4774194 343.935484,26.4774194 L338.36129,26.4774194 Z M347.574194,26.7483871 L347.574194,26.7096774 C350.864516,25.316129 352.258065,22.916129 352.258065,19.8193548 C352.258065,17.4193548 351.406452,15.2903226 349.083871,14.0903226 L349.083871,14.0516129 C355.393548,14.9032258 358.567742,17.1096774 358.567742,20.2064516 C358.567742,23.883871 355.316129,26.4 347.574194,26.7483871 Z M353.109677,24.7354839 C354.658065,23.6516129 356.129032,21.9483871 356.129032,20.0903226 C356.129032,18.3096774 354.967742,16.9935484 353.225806,15.9483871 L352.916129,16.2193548 C354.193548,17.3419355 355.045161,18.5032258 355.045161,20.0903226 C355.045161,21.5612903 354.116129,23.1483871 352.722581,24.4645161 L353.109677,24.7354839 Z M333.832258,24.6967742 L334.76129,24.6967742 L334.76129,16.9935484 L333.832258,16.9935484 L333.832258,24.6967742 Z" id="B"></path>
                    <path d="M362.670968,27.483871 L394.83871,27.483871 L394.83871,17.5741935 L394.141935,17.5741935 L393.174194,20.0516129 C391.664516,23.8064516 388.722581,26.4774194 384.116129,26.4774194 L376.645161,26.4774194 L376.645161,13.9741935 L378.619355,13.9741935 C381.948387,13.9741935 383.845161,14.9806452 384.774194,17.7677419 L385.587097,20.2451613 L386.206452,20.2451613 L386.206452,6.77419355 L385.587097,6.77419355 L384.774194,9.29032258 C383.883871,12 381.948387,13.0451613 378.619355,13.0451613 L376.645161,13.0451613 L376.645161,1.81935484 L384.929032,1.81935484 C389.070968,1.81935484 392.245161,4.52903226 393.406452,8.4 L393.870968,9.9483871 L394.567742,9.9483871 L394.567742,0.812903226 L362.670968,0.812903226 L362.670968,1.50967742 L364.335484,1.89677419 C367.896774,2.70967742 368.516129,3.71612903 368.516129,6.58064516 L368.516129,21.716129 C368.516129,24.5806452 367.896774,25.5870968 364.335484,26.4 L362.670968,26.7870968 L362.670968,27.483871 Z M366.541935,26.5548387 L366.541935,26.516129 C368.864516,25.6258065 369.522581,24.2709677 369.522581,21.716129 L369.522581,6.58064516 C369.522581,4.02580645 368.864516,2.63225806 366.503226,1.78064516 L366.503226,1.74193548 L375.63871,1.74193548 L375.63871,26.5548387 L366.541935,26.5548387 Z M393.6,6.50322581 C392.632258,4.02580645 390.890323,2.59354839 388.645161,1.78064516 L388.645161,1.74193548 L393.63871,1.74193548 L393.63871,6.50322581 L393.6,6.50322581 Z M372.116129,11.0322581 L373.045161,11.0322581 L373.045161,3.6 L372.116129,3.6 L372.116129,11.0322581 Z M385.23871,17.0322581 C384.503226,15.0580645 383.535484,14.0129032 381.522581,13.5096774 L381.522581,13.4709677 C383.574194,12.9290323 384.541935,12 385.23871,10.1419355 L385.277419,10.1419355 L385.277419,17.0322581 L385.23871,17.0322581 Z M372.580645,15.5225806 L374.090323,14.0129032 L372.580645,12.5032258 L371.070968,14.0129032 L372.580645,15.5225806 Z M372.116129,24.6967742 L373.045161,24.6967742 L373.045161,16.9935484 L372.116129,16.9935484 L372.116129,24.6967742 Z M388.064516,26.5548387 L388.064516,26.516129 C390.967742,25.6258065 392.825806,23.4580645 393.870968,20.5935484 L393.909677,20.5935484 L393.909677,26.5548387 L388.064516,26.5548387 Z" id="e"></path>
                    <path d="M415.896774,28.1419355 C420.425806,28.1419355 423.63871,27.1354839 426.890323,24.4645161 C428.322581,25.4709677 428.980645,26.1677419 429.987097,27.483871 L430.529032,27.483871 L430.529032,20.4774194 C430.529032,17.6903226 431.148387,16.6451613 432.812903,16.0645161 L434.477419,15.483871 L434.43871,14.7870968 L418.103226,14.7870968 L418.103226,15.483871 L420.154839,16.0258065 C422.206452,16.5677419 422.787097,17.6903226 422.787097,20.5548387 L422.787097,24 C422.787097,25.2774194 422.477419,25.8967742 421.664516,26.283871 C420.193548,26.9806452 418.296774,27.2129032 416.709677,27.2129032 C410.090323,27.2129032 407.380645,21.4451613 407.380645,14.1290323 C407.380645,6.8516129 409.587097,1.16129032 415.974194,1.16129032 C418.374194,1.16129032 420.890323,1.81935484 422.980645,3.36774194 C425.187097,4.99354839 427.006452,7.70322581 428.090323,10.7612903 L428.787097,10.7612903 L428.787097,0.193548387 L428.245161,0.193548387 C426.03871,1.93548387 425.109677,2.51612903 424.606452,2.51612903 C423.870968,2.51612903 420.890323,0.232258065 415.16129,0.232258065 C405.406452,0.232258065 398.787097,5.80645161 398.787097,14.1290323 C398.787097,23.9612903 407.109677,28.1419355 415.896774,28.1419355 Z M412.490323,27.1741935 C405.251613,26.0516129 399.793548,21.2129032 399.793548,14.1290323 C399.793548,7.74193548 404.206452,2.86451613 411.716129,1.31612903 L411.754839,1.35483871 C407.690323,3.36774194 406.374194,8.0516129 406.374194,14.5548387 C406.374194,20.4387097 408.270968,25.4709677 412.529032,27.1354839 L412.490323,27.1741935 Z M427.896774,8.55483871 C427.045161,6.30967742 425.96129,4.76129032 424.296774,3.32903226 L424.335484,3.29032258 C425.341935,3.48387097 426.270968,2.94193548 427.896774,1.43225806 L427.935484,1.43225806 L427.935484,8.55483871 L427.896774,8.55483871 Z M402.696774,11.4193548 L403.780645,11.4193548 C404.283871,8.59354839 404.941935,7.00645161 407.070968,4.29677419 L406.76129,4.02580645 C404.322581,6.30967742 403.23871,8.36129032 402.696774,11.4193548 Z M403.006452,15.8322581 L404.516129,14.3225806 L403.006452,12.8129032 L401.496774,14.3225806 L403.006452,15.8322581 Z M423.367742,25.7419355 L423.329032,25.7032258 C423.63871,25.2 423.716129,24.6193548 423.716129,24 L423.716129,20.5548387 C423.716129,18 423.483871,16.6064516 421.625806,15.7548387 L421.625806,15.716129 L431.612903,15.716129 L431.612903,15.7548387 C430.103226,16.6451613 429.6,18.0387097 429.6,20.4774194 L429.6,25.7419355 C428.709677,24.6967742 427.974194,24.0387097 426.851613,23.3032258 C425.767742,24.2709677 424.722581,25.0064516 423.367742,25.7419355 Z M407.148387,24.4258065 L407.458065,24.116129 C405.212903,22.0258065 404.167742,20.0129032 403.741935,17.3806452 L402.735484,17.3806452 C403.23871,20.283871 404.748387,22.8 407.148387,24.4258065 Z M426.658065,21.4451613 L428.167742,19.9354839 L426.658065,18.4258065 L425.148387,19.9354839 L426.658065,21.4451613 Z" id="g"></path>
                    <path d="M435.832258,27.483871 L455.651613,27.483871 L455.651613,26.7870968 L453.987097,26.4 C450.425806,25.5870968 449.806452,24.5806452 449.806452,21.716129 L449.806452,6.58064516 C449.806452,3.71612903 450.425806,2.70967742 453.987097,1.89677419 L455.651613,1.50967742 L455.651613,0.812903226 L435.832258,0.812903226 L435.832258,1.50967742 L437.496774,1.89677419 C441.058065,2.70967742 441.677419,3.71612903 441.677419,6.58064516 L441.677419,21.716129 C441.677419,24.5806452 441.058065,25.5870968 437.496774,26.4 L435.832258,26.7870968 L435.832258,27.483871 Z M439.858065,26.5548387 L439.858065,26.516129 C441.987097,25.6645161 442.683871,24.3096774 442.683871,21.716129 L442.683871,6.58064516 C442.683871,3.98709677 442.025806,2.67096774 439.974194,1.78064516 L439.974194,1.74193548 L451.432258,1.74193548 L451.432258,1.78064516 C449.419355,2.67096774 448.8,4.02580645 448.8,6.58064516 L448.8,21.716129 C448.8,24.2709677 449.458065,25.6258065 451.432258,26.516129 L451.432258,26.5548387 L439.858065,26.5548387 Z M445.277419,11.0322581 L446.206452,11.0322581 L446.206452,3.6 L445.277419,3.6 L445.277419,11.0322581 Z M445.741935,15.5225806 L447.251613,14.0129032 L445.741935,12.5032258 L444.232258,14.0129032 L445.741935,15.5225806 Z M445.277419,24.6967742 L446.206452,24.6967742 L446.206452,16.9935484 L445.277419,16.9935484 L445.277419,24.6967742 Z" id="i"></path>
                    <path d="M487.780645,27.7935484 L488.4,27.7935484 L488.4,8.67096774 C488.4,4.83870968 490.025806,3.21290323 492.774194,2.12903226 L494.36129,1.50967742 L494.36129,0.812903226 L480.309677,0.812903226 L480.309677,1.50967742 L482.748387,2.12903226 C485.729032,2.90322581 487.432258,4.83870968 487.432258,8.67096774 L487.432258,16.5677419 L470.748387,0.812903226 L457.974194,0.812903226 L457.974194,1.50967742 L459.406452,1.89677419 C461.496774,2.47741935 462.851613,4.02580645 464.322581,5.49677419 L464.709677,5.88387097 L464.709677,19.6258065 C464.709677,23.4580645 463.083871,25.083871 460.335484,26.1677419 L458.748387,26.7870968 L458.748387,27.483871 L472.916129,27.483871 L472.916129,26.7870968 L470.477419,26.1677419 C467.496774,25.3935484 465.716129,23.4580645 465.716129,19.6258065 L465.716129,6.81290323 L487.780645,27.7935484 Z M487.393548,26.0903226 L464.980645,4.72258065 C463.935484,3.71612903 462.851613,2.59354839 461.070968,1.78064516 L461.070968,1.74193548 L470.36129,1.78064516 L487.393548,17.9225806 L487.393548,26.0903226 Z M487.858065,6 C487.316129,3.87096774 486.154839,2.55483871 484.258065,1.78064516 L484.258065,1.74193548 L491.458065,1.74193548 L491.458065,1.78064516 C489.6,2.70967742 488.43871,3.98709677 487.896774,6 L487.858065,6 Z M474.154839,10.2967742 L474.812903,9.63870968 L468.580645,3.6 L467.264516,3.6 L474.154839,10.2967742 Z M475.548387,13.1225806 L477.716129,13.1225806 L477.716129,10.9548387 L475.548387,10.9548387 L475.548387,13.1225806 Z M485.612903,20.9419355 L485.612903,19.6258065 L479.109677,13.8193548 L478.451613,14.4774194 L485.612903,20.9419355 Z M461.574194,26.5548387 L461.574194,26.516129 C463.509677,25.5870968 464.632258,24.3483871 465.174194,22.2967742 L465.251613,22.2967742 C465.870968,24.4258065 467.032258,25.7419355 468.967742,26.516129 L468.967742,26.5548387 L461.574194,26.5548387 Z" id="n"></path>
                    <path d="M525.135484,27.7935484 L525.754839,27.7935484 L525.754839,8.67096774 C525.754839,4.83870968 527.380645,3.21290323 530.129032,2.12903226 L531.716129,1.50967742 L531.716129,0.812903226 L517.664516,0.812903226 L517.664516,1.50967742 L520.103226,2.12903226 C523.083871,2.90322581 524.787097,4.83870968 524.787097,8.67096774 L524.787097,16.5677419 L508.103226,0.812903226 L495.329032,0.812903226 L495.329032,1.50967742 L496.76129,1.89677419 C498.851613,2.47741935 500.206452,4.02580645 501.677419,5.49677419 L502.064516,5.88387097 L502.064516,19.6258065 C502.064516,23.4580645 500.43871,25.083871 497.690323,26.1677419 L496.103226,26.7870968 L496.103226,27.483871 L510.270968,27.483871 L510.270968,26.7870968 L507.832258,26.1677419 C504.851613,25.3935484 503.070968,23.4580645 503.070968,19.6258065 L503.070968,6.81290323 L525.135484,27.7935484 Z M524.748387,26.0903226 L502.335484,4.72258065 C501.290323,3.71612903 500.206452,2.59354839 498.425806,1.78064516 L498.425806,1.74193548 L507.716129,1.78064516 L524.748387,17.9225806 L524.748387,26.0903226 Z M525.212903,6 C524.670968,3.87096774 523.509677,2.55483871 521.612903,1.78064516 L521.612903,1.74193548 L528.812903,1.74193548 L528.812903,1.78064516 C526.954839,2.70967742 525.793548,3.98709677 525.251613,6 L525.212903,6 Z M511.509677,10.2967742 L512.167742,9.63870968 L505.935484,3.6 L504.619355,3.6 L511.509677,10.2967742 Z M512.903226,13.1225806 L515.070968,13.1225806 L515.070968,10.9548387 L512.903226,10.9548387 L512.903226,13.1225806 Z M522.967742,20.9419355 L522.967742,19.6258065 L516.464516,13.8193548 L515.806452,14.4774194 L522.967742,20.9419355 Z M498.929032,26.5548387 L498.929032,26.516129 C500.864516,25.5870968 501.987097,24.3483871 502.529032,22.2967742 L502.606452,22.2967742 C503.225806,24.4258065 504.387097,25.7419355 506.322581,26.516129 L506.322581,26.5548387 L498.929032,26.5548387 Z" id="n"></path>
                    <path d="M533.070968,27.483871 L552.890323,27.483871 L552.890323,26.7870968 L551.225806,26.4 C547.664516,25.5870968 547.045161,24.5806452 547.045161,21.716129 L547.045161,6.58064516 C547.045161,3.71612903 547.664516,2.70967742 551.225806,1.89677419 L552.890323,1.50967742 L552.890323,0.812903226 L533.070968,0.812903226 L533.070968,1.50967742 L534.735484,1.89677419 C538.296774,2.70967742 538.916129,3.71612903 538.916129,6.58064516 L538.916129,21.716129 C538.916129,24.5806452 538.296774,25.5870968 534.735484,26.4 L533.070968,26.7870968 L533.070968,27.483871 Z M537.096774,26.5548387 L537.096774,26.516129 C539.225806,25.6645161 539.922581,24.3096774 539.922581,21.716129 L539.922581,6.58064516 C539.922581,3.98709677 539.264516,2.67096774 537.212903,1.78064516 L537.212903,1.74193548 L548.670968,1.74193548 L548.670968,1.78064516 C546.658065,2.67096774 546.03871,4.02580645 546.03871,6.58064516 L546.03871,21.716129 C546.03871,24.2709677 546.696774,25.6258065 548.670968,26.516129 L548.670968,26.5548387 L537.096774,26.5548387 Z M542.516129,11.0322581 L543.445161,11.0322581 L543.445161,3.6 L542.516129,3.6 L542.516129,11.0322581 Z M542.980645,15.5225806 L544.490323,14.0129032 L542.980645,12.5032258 L541.470968,14.0129032 L542.980645,15.5225806 Z M542.516129,24.6967742 L543.445161,24.6967742 L543.445161,16.9935484 L542.516129,16.9935484 L542.516129,24.6967742 Z" id="i"></path>
                    <path d="M585.019355,27.7935484 L585.63871,27.7935484 L585.63871,8.67096774 C585.63871,4.83870968 587.264516,3.21290323 590.012903,2.12903226 L591.6,1.50967742 L591.6,0.812903226 L577.548387,0.812903226 L577.548387,1.50967742 L579.987097,2.12903226 C582.967742,2.90322581 584.670968,4.83870968 584.670968,8.67096774 L584.670968,16.5677419 L567.987097,0.812903226 L555.212903,0.812903226 L555.212903,1.50967742 L556.645161,1.89677419 C558.735484,2.47741935 560.090323,4.02580645 561.56129,5.49677419 L561.948387,5.88387097 L561.948387,19.6258065 C561.948387,23.4580645 560.322581,25.083871 557.574194,26.1677419 L555.987097,26.7870968 L555.987097,27.483871 L570.154839,27.483871 L570.154839,26.7870968 L567.716129,26.1677419 C564.735484,25.3935484 562.954839,23.4580645 562.954839,19.6258065 L562.954839,6.81290323 L585.019355,27.7935484 Z M584.632258,26.0903226 L562.219355,4.72258065 C561.174194,3.71612903 560.090323,2.59354839 558.309677,1.78064516 L558.309677,1.74193548 L567.6,1.78064516 L584.632258,17.9225806 L584.632258,26.0903226 Z M585.096774,6 C584.554839,3.87096774 583.393548,2.55483871 581.496774,1.78064516 L581.496774,1.74193548 L588.696774,1.74193548 L588.696774,1.78064516 C586.83871,2.70967742 585.677419,3.98709677 585.135484,6 L585.096774,6 Z M571.393548,10.2967742 L572.051613,9.63870968 L565.819355,3.6 L564.503226,3.6 L571.393548,10.2967742 Z M572.787097,13.1225806 L574.954839,13.1225806 L574.954839,10.9548387 L572.787097,10.9548387 L572.787097,13.1225806 Z M582.851613,20.9419355 L582.851613,19.6258065 L576.348387,13.8193548 L575.690323,14.4774194 L582.851613,20.9419355 Z M558.812903,26.5548387 L558.812903,26.516129 C560.748387,25.5870968 561.870968,24.3483871 562.412903,22.2967742 L562.490323,22.2967742 C563.109677,24.4258065 564.270968,25.7419355 566.206452,26.516129 L566.206452,26.5548387 L558.812903,26.5548387 Z" id="n"></path>
                    <path d="M610.258065,28.1419355 C614.787097,28.1419355 618,27.1354839 621.251613,24.4645161 C622.683871,25.4709677 623.341935,26.1677419 624.348387,27.483871 L624.890323,27.483871 L624.890323,20.4774194 C624.890323,17.6903226 625.509677,16.6451613 627.174194,16.0645161 L628.83871,15.483871 L628.8,14.7870968 L612.464516,14.7870968 L612.464516,15.483871 L614.516129,16.0258065 C616.567742,16.5677419 617.148387,17.6903226 617.148387,20.5548387 L617.148387,24 C617.148387,25.2774194 616.83871,25.8967742 616.025806,26.283871 C614.554839,26.9806452 612.658065,27.2129032 611.070968,27.2129032 C604.451613,27.2129032 601.741935,21.4451613 601.741935,14.1290323 C601.741935,6.8516129 603.948387,1.16129032 610.335484,1.16129032 C612.735484,1.16129032 615.251613,1.81935484 617.341935,3.36774194 C619.548387,4.99354839 621.367742,7.70322581 622.451613,10.7612903 L623.148387,10.7612903 L623.148387,0.193548387 L622.606452,0.193548387 C620.4,1.93548387 619.470968,2.51612903 618.967742,2.51612903 C618.232258,2.51612903 615.251613,0.232258065 609.522581,0.232258065 C599.767742,0.232258065 593.148387,5.80645161 593.148387,14.1290323 C593.148387,23.9612903 601.470968,28.1419355 610.258065,28.1419355 Z M606.851613,27.1741935 C599.612903,26.0516129 594.154839,21.2129032 594.154839,14.1290323 C594.154839,7.74193548 598.567742,2.86451613 606.077419,1.31612903 L606.116129,1.35483871 C602.051613,3.36774194 600.735484,8.0516129 600.735484,14.5548387 C600.735484,20.4387097 602.632258,25.4709677 606.890323,27.1354839 L606.851613,27.1741935 Z M622.258065,8.55483871 C621.406452,6.30967742 620.322581,4.76129032 618.658065,3.32903226 L618.696774,3.29032258 C619.703226,3.48387097 620.632258,2.94193548 622.258065,1.43225806 L622.296774,1.43225806 L622.296774,8.55483871 L622.258065,8.55483871 Z M597.058065,11.4193548 L598.141935,11.4193548 C598.645161,8.59354839 599.303226,7.00645161 601.432258,4.29677419 L601.122581,4.02580645 C598.683871,6.30967742 597.6,8.36129032 597.058065,11.4193548 Z M597.367742,15.8322581 L598.877419,14.3225806 L597.367742,12.8129032 L595.858065,14.3225806 L597.367742,15.8322581 Z M617.729032,25.7419355 L617.690323,25.7032258 C618,25.2 618.077419,24.6193548 618.077419,24 L618.077419,20.5548387 C618.077419,18 617.845161,16.6064516 615.987097,15.7548387 L615.987097,15.716129 L625.974194,15.716129 L625.974194,15.7548387 C624.464516,16.6451613 623.96129,18.0387097 623.96129,20.4774194 L623.96129,25.7419355 C623.070968,24.6967742 622.335484,24.0387097 621.212903,23.3032258 C620.129032,24.2709677 619.083871,25.0064516 617.729032,25.7419355 Z M601.509677,24.4258065 L601.819355,24.116129 C599.574194,22.0258065 598.529032,20.0129032 598.103226,17.3806452 L597.096774,17.3806452 C597.6,20.283871 599.109677,22.8 601.509677,24.4258065 Z M621.019355,21.4451613 L622.529032,19.9354839 L621.019355,18.4258065 L619.509677,19.9354839 L621.019355,21.4451613 Z" id="g"></path>
                    <path d="M645.290323,28.1419355 C652.8,28.1419355 658.83871,24.3870968 658.83871,19.0064516 C658.83871,14.6709677 656.129032,11.7290323 650.516129,10.7225806 L642.03871,9.17419355 C639.135484,8.63225806 637.045161,7.78064516 637.045161,5.45806452 C637.045161,2.28387097 640.490323,1.16129032 644.206452,1.16129032 C646.8,1.16129032 649.625806,1.78064516 651.909677,3.29032258 C654.154839,4.76129032 655.548387,6.96774194 656.709677,9.98709677 L657.367742,9.98709677 L657.367742,0.193548387 L656.825806,0.193548387 C655.083871,1.74193548 653.922581,2.51612903 653.225806,2.51612903 C652.529032,2.51612903 649.509677,0.232258065 644.167742,0.232258065 C637.16129,0.232258065 631.548387,3.13548387 631.548387,8.78709677 C631.548387,13.2387097 634.683871,16.2193548 640.490323,17.3032258 L648.967742,18.8516129 C652.141935,19.4322581 653.341935,20.9419355 653.341935,22.8387097 C653.341935,25.8967742 649.16129,27.2129032 645.174194,27.2129032 C642.580645,27.2129032 639.754839,26.516129 637.122581,24.9290323 C634.83871,23.5354839 633.445161,20.9419355 632.283871,17.9225806 L631.625806,17.9225806 L631.625806,28.1032258 L632.167742,28.1032258 C633.63871,26.6709677 634.877419,25.7419355 635.767742,25.7419355 C636.425806,25.7419355 640.141935,28.1419355 645.290323,28.1419355 Z M656.477419,7.58709677 C655.625806,5.57419355 654.696774,4.29677419 653.341935,3.29032258 L653.341935,3.2516129 C654.387097,3.17419355 655.354839,2.51612903 656.477419,1.47096774 L656.516129,1.47096774 L656.516129,7.58709677 L656.477419,7.58709677 Z M652.83871,25.8967742 L652.8,25.8580645 C653.845161,24.7741935 654.309677,23.6516129 654.309677,22.5677419 C654.309677,20.4 652.722581,18.5806452 649.122581,17.9225806 L640.645161,16.3741935 C635.264516,15.3677419 632.554839,12.7354839 632.554839,8.78709677 C632.554839,5.92258065 634.219355,3.36774194 637.664516,2.09032258 L637.703226,2.12903226 C636.541935,3.09677419 636.03871,4.18064516 636.03871,5.45806452 C636.03871,7.97419355 637.896774,9.32903226 641.883871,10.1032258 L650.36129,11.6516129 C655.393548,12.5419355 657.832258,15.0193548 657.832258,19.0064516 C657.832258,21.716129 656.090323,24.2322581 652.83871,25.8967742 Z M642.387097,13.9354839 L642.541935,13.0064516 L641.341935,12.7741935 C637.23871,12 634.76129,10.4129032 634.567742,6.77419355 L634.180645,6.77419355 C634.141935,7.04516129 634.103226,7.31612903 634.103226,7.58709677 C634.141935,10.8387097 637.006452,12.9290323 641.187097,13.7032258 L642.387097,13.9354839 Z M645.174194,15.6 L646.916129,14.3612903 L645.716129,12.6193548 L643.935484,13.8193548 L645.174194,15.6 Z M655.625806,21.7548387 L656.012903,21.7548387 C656.129032,21.2129032 656.167742,20.6709677 656.167742,20.1677419 C656.167742,16.916129 653.729032,15.0580645 649.819355,14.3225806 L648.387097,14.0516129 L648.232258,14.9806452 L649.664516,15.2516129 C653.574194,15.9483871 655.703226,17.7677419 655.625806,21.3677419 L655.625806,21.7548387 Z M632.477419,26.8258065 L632.477419,20.5548387 L632.516129,20.5548387 C633.290323,22.6064516 634.335484,23.8064516 635.574194,24.8129032 L635.574194,24.8516129 C634.645161,25.0064516 633.754839,25.6258065 632.516129,26.8258065 L632.477419,26.8258065 Z" id="s"></path>
                </g>
                <g id="Group" transform="translate(0.000000, 37.419355)">
                    <rect id="Rectangle" fill="#B8D1ED" x="0" y="0" width="94.1935484" height="2.58064516"></rect>
                    <rect id="Rectangle" fill="#D5DC91" x="94.1935484" y="0" width="94.1935484" height="2.58064516"></rect>
                    <rect id="Rectangle" fill="#FFCCCC" x="188.387097" y="0" width="94.1935484" height="2.58064516"></rect>
                    <rect id="Rectangle" fill="#B8D1ED" x="376.774194" y="0" width="94.1935484" height="2.58064516"></rect>
                    <rect id="Rectangle" fill="#D5DC91" x="470.967742" y="0" width="94.1935484" height="2.58064516"></rect>
                    <rect id="Rectangle" fill="#FFCCCC" x="565.16129" y="0" width="94.1935484" height="2.58064516"></rect>
                    <rect id="Rectangle" fill="#FFEFBC" x="282.580645" y="0" width="94.1935484" height="2.58064516"></rect>
                </g>
            </g>
        </g>
    </g>
</svg>