<?xml version="1.0" encoding="UTF-8"?>
<svg width="179px" height="127px" viewBox="0 0 179 127" version="1.1" xmlns="http://www.w3.org/2000/svg" xmlns:xlink="http://www.w3.org/1999/xlink">
    <title>Group 24</title>
    <g id="Beautiful-Beginnings-Final" stroke="none" stroke-width="1" fill="none" fill-rule="evenodd">
        <g id="Home---Desktop---Slide-1" transform="translate(-801.000000, -4336.000000)" fill="#111111" fill-rule="nonzero">
            <g id="Email-Sign-Up" transform="translate(0.000000, 4244.000000)">
                <g id="Content-Block" transform="translate(322.000000, 0.000000)">
                    <g id="Red-Dot-Ad" transform="translate(414.000000, 46.000000)">
                        <g id="Group-24" transform="translate(65.000000, 46.000000)">
                            <g id="10%" transform="translate(3.362500, 11.750000)">
                                <path d="M0.225,53.25 L37.875,53.25 L37.875,51.9 L34.65,51.075 C28.5,49.575 27.3,47.625 27.3,42.075 L27.3,0 L26.175,0 L0,14.625 L0.975,16.35 L12.3,9.975 L12.3,42.075 C12.3,47.625 11.1,49.65 3.45,51.225 L0.225,51.9 L0.225,53.25 Z M8.925,51.45 L8.925,51.375 C12.975,49.725 14.25,47.1 14.25,42.075 L14.25,8.85 L25.35,2.7 L25.35,42.075 C25.35,47.1 26.625,49.725 30.45,51.375 L30.45,51.45 L8.925,51.45 Z M18.9,22.125 L20.7,22.125 L20.7,9.3 L18.9,10.275 L18.9,22.125 Z M19.8,30.825 L22.725,27.9 L19.8,24.975 L16.875,27.9 L19.8,30.825 Z M18.9,47.85 L20.7,47.85 L20.7,33.675 L18.9,33.675 L18.9,47.85 Z" id="1"></path>
                                <path d="M73.5,54.375 C90.6,54.375 102.375,43.575 102.375,27.375 C102.375,11.025 90.45,0.375 73.5,0.375 C56.55,0.375 44.625,11.025 44.625,27.375 C44.625,43.575 56.4,54.375 73.5,54.375 Z M73.5,52.575 C62.25,52.575 61.275,42.3 61.275,27.375 C61.275,12.75 62.175,2.175 73.5,2.175 C84.825,2.175 85.725,12.75 85.725,27.375 C85.725,42.3 84.75,52.575 73.5,52.575 Z M65.625,51.9 C53.925,48.975 46.575,39.825 46.575,27.375 C46.575,14.925 53.85,5.775 65.625,2.85 L65.7,2.925 C60,7.275 59.325,16.5 59.325,27.375 C59.325,38.25 60,47.55 65.7,51.825 L65.625,51.9 Z M81.375,51.9 L81.3,51.825 C87,47.55 87.675,38.25 87.675,27.375 C87.675,16.5 87,7.275 81.3,2.925 L81.375,2.85 C93.15,5.775 100.425,14.925 100.425,27.375 C100.425,39.825 93.075,48.975 81.375,51.9 Z M52.2,21.75 L54.075,21.75 C54.6,16.425 56.325,12.075 58.875,8.625 L58.275,8.25 C54.6,11.775 52.95,16.35 52.2,21.75 Z M92.925,21.75 L94.8,21.75 C94.05,16.35 92.4,11.775 88.725,8.25 L88.125,8.625 C90.675,12.075 92.4,16.425 92.925,21.75 Z M52.875,30.3 L55.8,27.375 L52.875,24.45 L49.95,27.375 L52.875,30.3 Z M94.125,30.3 L97.05,27.375 L94.125,24.45 L91.2,27.375 L94.125,30.3 Z M57.675,45.975 L58.275,45.6 C56.325,42.45 54.825,38.325 54.075,33.3 L52.275,33.3 C53.025,38.175 54.6,42.45 57.675,45.975 Z M89.325,45.975 C92.4,42.45 93.975,38.175 94.725,33.3 L92.925,33.3 C92.175,38.325 90.675,42.45 88.725,45.6 L89.325,45.975 Z" id="0"></path>
                                <path d="M126.15,27.45 C134.475,27.45 141.675,22.125 141.675,14.25 C141.675,6.375 134.475,1.05 126.15,1.05 C117.825,1.05 110.625,6.375 110.625,14.25 C110.625,22.125 117.825,27.45 126.15,27.45 Z M116.55,51.975 L167.1,4.275 L165.525,2.55 L114.825,50.325 L116.55,51.975 Z M126.15,25.725 C121.05,25.725 120.675,21.75 120.675,14.25 C120.675,6.75 121.05,2.775 126.15,2.775 C131.25,2.775 131.625,6.75 131.625,14.25 C131.625,21.75 131.25,25.725 126.15,25.725 Z M121.575,25.575 C115.725,23.55 112.425,19.35 112.425,14.25 C112.425,9.15 115.725,4.95 121.575,2.925 L121.65,3 C120.15,4.35 118.875,6.6 118.875,14.25 C118.875,21.9 120.15,24.15 121.65,25.5 L121.575,25.575 Z M130.725,25.575 L130.65,25.5 C132.15,24.15 133.425,21.9 133.425,14.25 C133.425,6.6 132.15,4.35 130.65,3 L130.725,2.925 C136.575,4.95 139.875,9.15 139.875,14.25 C139.875,19.35 136.575,23.55 130.725,25.575 Z M117.825,7.275 L117.3,6.9 C115.725,8.775 114.975,11.1 114.975,14.25 C114.975,17.4 115.725,19.725 117.3,21.6 L117.825,21.225 C116.775,19.425 116.325,17.25 116.325,14.25 C116.325,11.25 116.775,9.075 117.825,7.275 Z M134.475,7.275 C135.525,9.075 135.975,11.25 135.975,14.25 C135.975,17.25 135.525,19.425 134.475,21.225 L135,21.6 C136.575,19.725 137.325,17.4 137.325,14.25 C137.325,11.1 136.575,8.775 135,6.9 L134.475,7.275 Z M156,53.7 C164.325,53.7 171.525,48.375 171.525,40.5 C171.525,32.625 164.325,27.3 156,27.3 C147.675,27.3 140.475,32.625 140.475,40.5 C140.475,48.375 147.675,53.7 156,53.7 Z M156,51.975 C150.9,51.975 150.525,48 150.525,40.5 C150.525,33 150.9,29.025 156,29.025 C161.1,29.025 161.475,33 161.475,40.5 C161.475,48 161.1,51.975 156,51.975 Z M151.425,51.825 C145.575,49.8 142.275,45.6 142.275,40.5 C142.275,35.4 145.575,31.2 151.425,29.175 L151.5,29.25 C150,30.6 148.725,32.85 148.725,40.5 C148.725,48.15 150,50.4 151.5,51.75 L151.425,51.825 Z M160.575,51.825 L160.5,51.75 C162,50.4 163.275,48.15 163.275,40.5 C163.275,32.85 162,30.6 160.5,29.25 L160.575,29.175 C166.425,31.2 169.725,35.4 169.725,40.5 C169.725,45.6 166.425,49.8 160.575,51.825 Z M147.675,33.525 L147.15,33.15 C145.575,35.025 144.825,37.35 144.825,40.5 C144.825,43.65 145.575,45.975 147.15,47.85 L147.675,47.475 C146.625,45.675 146.175,43.5 146.175,40.5 C146.175,37.5 146.625,35.325 147.675,33.525 Z M164.325,33.525 C165.375,35.325 165.825,37.5 165.825,40.5 C165.825,43.5 165.375,45.675 164.325,47.475 L164.85,47.85 C166.425,45.975 167.175,43.65 167.175,40.5 C167.175,37.35 166.425,35.025 164.85,33.15 L164.325,33.525 Z" id="%"></path>
                            </g>
                            <g id="OFF" transform="translate(2.250000, 79.240000)">
                                <path d="M29.965,46.865 C46.215,46.865 59.93,38.61 59.93,23.335 C59.93,8.19 46.28,0 29.965,0 C13.65,0 0,8.19 0,23.335 C0,38.61 13.715,46.865 29.965,46.865 Z M29.965,45.305 C21.125,45.305 14.43,38.61 14.43,23.335 C14.43,8.06 21.125,1.56 29.965,1.56 C38.805,1.56 45.5,8.06 45.5,23.335 C45.5,38.61 38.805,45.305 29.965,45.305 Z M22.1,44.98 C9.035,41.925 1.69,34.125 1.69,23.335 C1.69,12.675 9.035,4.94 21.97,1.95 L22.035,2.015 C15.795,5.98 12.74,13.325 12.74,23.335 C12.74,33.54 15.86,40.82 22.165,44.915 L22.1,44.98 Z M37.83,44.98 L37.765,44.915 C44.07,40.82 47.19,33.54 47.19,23.335 C47.19,13.325 44.135,5.98 37.895,2.015 L37.96,1.95 C50.895,4.94 58.24,12.675 58.24,23.335 C58.24,34.125 50.895,41.925 37.83,44.98 Z M6.565,18.46 L8.385,18.46 C9.23,14.04 10.27,11.31 14.69,6.76 L14.17,6.305 C9.23,10.205 7.475,13.65 6.565,18.46 Z M51.35,18.46 L53.17,18.46 C52.26,13.65 50.505,10.205 45.565,6.305 L45.045,6.76 C49.465,11.31 50.505,14.04 51.35,18.46 Z M7.085,25.87 L9.62,23.335 L7.085,20.8 L4.55,23.335 L7.085,25.87 Z M52.65,25.87 L55.185,23.335 L52.65,20.8 L50.115,23.335 L52.65,25.87 Z M14.43,40.625 L15.015,40.235 C10.725,36.66 9.1,33.28 8.32,28.47 L6.63,28.47 C7.475,33.67 9.945,37.895 14.43,40.625 Z M45.305,40.625 C49.79,37.895 52.26,33.67 53.105,28.47 L51.415,28.47 C50.635,33.28 49.01,36.66 44.72,40.235 L45.305,40.625 Z" id="O"></path>
                                <path d="M65.455,45.76 L99.385,45.76 L99.385,44.59 L95.94,43.94 C89.895,42.77 88.92,40.885 88.92,36.075 L88.92,23.855 L91.845,23.855 C97.435,23.855 100.49,25.025 102.18,30.16 L103.545,34.385 L104.585,34.385 L104.585,11.765 L103.545,11.765 L102.18,15.99 C100.49,21.125 97.435,22.295 91.845,22.295 L88.92,22.295 L88.92,2.665 L102.18,2.665 C109.59,2.665 114.725,8.06 116.48,14.365 L117.195,16.965 L118.365,16.965 L118.365,0.975 L65.455,0.975 L65.455,2.145 L68.25,2.795 C74.23,4.16 75.27,5.85 75.27,10.66 L75.27,36.075 C75.27,40.885 74.23,42.575 68.25,43.94 L65.455,44.59 L65.455,45.76 Z M71.955,44.2 L71.955,44.135 C75.855,42.64 76.96,40.365 76.96,36.075 L76.96,10.66 C76.96,6.37 75.855,4.03 71.89,2.6 L71.89,2.535 L87.23,2.535 L87.23,36.075 C87.23,40.365 88.14,42.64 91.91,44.135 L91.91,44.2 L71.955,44.2 Z M116.805,11.505 C115.115,7.02 112.125,4.16 107.9,2.6 L107.9,2.535 L116.87,2.535 L116.87,11.505 L116.805,11.505 Z M81.315,18.135 L82.875,18.135 L82.875,5.655 L81.315,5.655 L81.315,18.135 Z M102.96,28.275 C101.79,25.48 100.23,23.985 97.565,23.14 L97.565,23.01 C100.23,22.165 101.79,20.67 102.96,18.005 L103.025,18.005 L103.025,28.275 L102.96,28.275 Z M82.095,25.675 L84.63,23.14 L82.095,20.605 L79.56,23.14 L82.095,25.675 Z M81.315,41.08 L82.875,41.08 L82.875,28.145 L81.315,28.145 L81.315,41.08 Z" id="F"></path>
                                <path d="M123.24,45.76 L157.17,45.76 L157.17,44.59 L153.725,43.94 C147.68,42.77 146.705,40.885 146.705,36.075 L146.705,23.855 L149.63,23.855 C155.22,23.855 158.275,25.025 159.965,30.16 L161.33,34.385 L162.37,34.385 L162.37,11.765 L161.33,11.765 L159.965,15.99 C158.275,21.125 155.22,22.295 149.63,22.295 L146.705,22.295 L146.705,2.665 L159.965,2.665 C167.375,2.665 172.51,8.06 174.265,14.365 L174.98,16.965 L176.15,16.965 L176.15,0.975 L123.24,0.975 L123.24,2.145 L126.035,2.795 C132.015,4.16 133.055,5.85 133.055,10.66 L133.055,36.075 C133.055,40.885 132.015,42.575 126.035,43.94 L123.24,44.59 L123.24,45.76 Z M129.74,44.2 L129.74,44.135 C133.64,42.64 134.745,40.365 134.745,36.075 L134.745,10.66 C134.745,6.37 133.64,4.03 129.675,2.6 L129.675,2.535 L145.015,2.535 L145.015,36.075 C145.015,40.365 145.925,42.64 149.695,44.135 L149.695,44.2 L129.74,44.2 Z M174.59,11.505 C172.9,7.02 169.91,4.16 165.685,2.6 L165.685,2.535 L174.655,2.535 L174.655,11.505 L174.59,11.505 Z M139.1,18.135 L140.66,18.135 L140.66,5.655 L139.1,5.655 L139.1,18.135 Z M160.745,28.275 C159.575,25.48 158.015,23.985 155.35,23.14 L155.35,23.01 C158.015,22.165 159.575,20.67 160.745,18.005 L160.81,18.005 L160.81,28.275 L160.745,28.275 Z M139.88,25.675 L142.415,23.14 L139.88,20.605 L137.345,23.14 L139.88,25.675 Z M139.1,41.08 L140.66,41.08 L140.66,28.145 L139.1,28.145 L139.1,41.08 Z" id="F"></path>
                            </g>
                        </g>
                    </g>
                </g>
            </g>
        </g>
    </g>
</svg>