<?xml version="1.0" encoding="UTF-8"?>
<svg width="32px" height="32px" viewBox="0 0 32 32" version="1.1" xmlns="http://www.w3.org/2000/svg" xmlns:xlink="http://www.w3.org/1999/xlink">
    <title>Search Icon</title>
    <g id="Beautiful-Beginnings-Final" stroke="none" stroke-width="1" fill="none" fill-rule="evenodd">
        <g id="Home---Desktop---Slide-1" transform="translate(-1369.000000, -33.000000)" fill="#111111" fill-rule="nonzero" stroke="#111111" stroke-width="0.5">
            <g id="Header">
                <path d="M1399.86525,63.1972656 L1391.12306,54.4550781 C1393.13282,52.2871094 1394.32228,49.3867188 1394.32228,46.1875 C1394.32228,39.4550781 1388.86544,34 1382.13478,34 C1375.40411,34 1370,39.4568359 1370,46.1875 C1370,52.9181641 1375.45626,58.375 1382.13478,58.375 C1385.33107,58.375 1388.23439,57.1345703 1390.40821,55.1207031 L1399.1504,63.8628906 C1399.29103,63.953125 1399.40821,64 1399.47853,64 C1399.54884,64 1399.71841,63.9542207 1399.80993,63.8626563 C1400.04689,63.6777344 1400.04689,63.3847656 1399.86525,63.1972656 Z M1382.13478,57.4375 C1375.9297,57.4375 1370.88478,52.3908203 1370.88478,46.1875 C1370.88478,39.9841797 1375.93146,34.9375 1382.13478,34.9375 C1388.3381,34.9375 1393.38478,39.9841797 1393.38478,46.1875 C1393.38478,52.3908203 1388.39259,57.4375 1382.13478,57.4375 Z" id="Search-Icon"></path>
            </g>
        </g>
    </g>
</svg>