<?xml version="1.0" encoding="UTF-8"?>
<svg width="101px" height="100px" viewBox="0 0 101 100" version="1.1" xmlns="http://www.w3.org/2000/svg" xmlns:xlink="http://www.w3.org/1999/xlink">
    <title>Group 5</title>
    <g id="Beautiful-Beginnings-Final" stroke="none" stroke-width="1" fill="none" fill-rule="evenodd">
        <g id="Home---Desktop---Slide-1" transform="translate(-670.000000, -2698.000000)">
            <g id="Benefits" transform="translate(135.500000, 2530.000000)">
                <g id="Free-Shipping" transform="translate(464.000000, 168.000000)">
                    <g id="Group-5" transform="translate(71.000000, 0.000000)">
                        <circle id="Oval" fill="#D5DC91" cx="76" cy="76" r="15"></circle>
                        <path d="M98.4821429,25.5580357 L87.6785714,3.95089286 C86.4732143,1.52901786 83.9955357,0 81.2946429,0 L18.7008929,0 C15.9955357,0 13.5223214,1.52901786 12.3125,3.94866071 L1.50803571,25.5580357 C0.516294643,27.5446429 0,29.7321429 0,31.9419643 L0,92.8571429 C0,96.8013393 3.19866071,100 7.14285714,100 L92.8571429,100 C96.8013393,100 100,96.8013393 100,92.8571429 L100,31.9419643 C100,29.7321429 99.4866071,27.5446429 98.4821429,25.5580357 Z M81.2946429,3.57142857 C82.65625,3.57142857 83.8794643,4.32790179 84.4888393,5.54553571 L95.2924107,27.1526786 C95.5133929,27.6116071 95.6473214,28.1026786 95.8035714,28.5714286 L64.2633929,28.5714286 L58.0357143,3.57142857 L81.2946429,3.57142857 Z M39.2857143,32.1428571 L60.7142857,32.1428571 L60.7142857,57.1428571 L39.2857143,57.1428571 L39.2857143,32.1428571 Z M54.3526786,3.57142857 L60.6026786,28.5714286 L39.3973214,28.5714286 L45.6473214,3.57142857 L54.3526786,3.57142857 Z M4.703125,27.1428571 L15.5066964,5.53571429 C16.1160714,4.328125 17.3392857,3.57142857 18.7008929,3.57142857 L41.9642857,3.57142857 L35.7142857,28.5714286 L4.18973214,28.5714286 C4.34821429,28.1026786 4.47767857,27.6116071 4.703125,27.1428571 Z M96.4285714,92.8571429 C96.4285714,94.8263393 94.8263393,96.4285714 92.8571429,96.4285714 L7.14285714,96.4285714 C5.17366071,96.4285714 3.57142857,94.8263393 3.57142857,92.8571429 L3.57142857,32.1428571 L35.7142857,32.1428571 L35.7142857,57.1428571 C35.7142857,59.1151786 37.3133929,60.7142857 39.2857143,60.7142857 L60.7142857,60.7142857 C62.6785714,60.7142857 64.2857143,59.1071429 64.2857143,57.1428571 L64.2857143,32.1428571 L96.4285714,32.1428571 L96.4285714,92.8571429 Z" id="Shape" fill="#111111" fill-rule="nonzero"></path>
                    </g>
                </g>
            </g>
        </g>
    </g>
</svg>