<?xml version="1.0" encoding="UTF-8"?>
<svg width="26px" height="32px" viewBox="0 0 26 32" version="1.1" xmlns="http://www.w3.org/2000/svg" xmlns:xlink="http://www.w3.org/1999/xlink">
    <title>Shopping Bag Icon</title>
    <g id="Beautiful-Beginnings-Final" stroke="none" stroke-width="1" fill="none" fill-rule="evenodd">
        <g id="Home---Desktop---Slide-1" transform="translate(-1323.000000, -33.000000)" fill="#111111" fill-rule="nonzero" stroke="#111111" stroke-width="0.5">
            <g id="Shopping-Bag" transform="translate(1324.000000, 34.000000)">
                <path d="M22.5,9.375 L17.8125,9.375 L17.8125,5.625 C17.8125,2.52304688 15.2894531,0 12.2402344,0 C9.19101563,0 6.5625,2.52304688 6.5625,5.625 L6.5625,9.375 L1.875,9.375 C0.839648437,9.375 0,10.2146484 0,11.25 L0,25.3125 C0,27.9023438 2.09882813,30 4.6875,30 L19.6875,30 C22.2761719,30 24.375,27.9011719 24.375,25.3125 L24.375,11.25 C24.375,10.2128906 23.5371094,9.375 22.5,9.375 Z M7.5,5.625 C7.5,3.04042969 9.60234375,0.9375 12.1875,0.9375 C14.7726563,0.9375 16.875,3.04042969 16.875,5.625 L16.875,9.375 L7.5,9.375 L7.5,5.625 Z M23.4375,25.3125 C23.4375,27.3802734 21.7552734,29.0625 19.6875,29.0625 L4.6875,29.0625 C2.61972656,29.0625 0.9375,27.3802734 0.9375,25.3125 L0.9375,11.25 C0.9375,10.7330859 1.35796875,10.3125 1.875,10.3125 L6.5625,10.3125 L6.5625,14.53125 C6.5625,14.7890625 6.7734375,15 7.03125,15 C7.2890625,15 7.5,14.7890625 7.5,14.53125 L7.5,10.3125 L16.875,10.3125 L16.875,14.53125 C16.875,14.7890625 17.0859375,15 17.34375,15 C17.6015625,15 17.8125,14.7890625 17.8125,14.53125 L17.8125,10.3125 L22.5,10.3125 C23.015625,10.3125 23.4375,10.734375 23.4375,11.25 L23.4375,25.3125 Z" id="Shopping-Bag-Icon"></path>
            </g>
        </g>
    </g>
</svg>