<?xml version="1.0" encoding="UTF-8"?>
<svg width="131px" height="20px" viewBox="0 0 131 20" version="1.1" xmlns="http://www.w3.org/2000/svg" xmlns:xlink="http://www.w3.org/1999/xlink">
    <title>Group 4</title>
    <g id="Beautiful-Beginnings-Final" stroke="none" stroke-width="1" fill="none" fill-rule="evenodd">
        <g id="Home---Desktop---Slide-1" transform="translate(-329.000000, -430.000000)" fill="#7594B7">
            <g id="Hero" transform="translate(-1.000000, 130.000000)">
                <g id="Slide-1" transform="translate(1.000000, 0.000000)">
                    <g id="Hero-Text" transform="translate(266.000000, 100.000000)">
                        <g id="Group-4" transform="translate(63.500000, 200.000000)">
                            <rect id="Rectangle" x="0" y="9" width="50" height="2"></rect>
                            <path d="M64.0910668,0.632808851 C64.4032834,-0.210937188 65.5966763,-0.210936025 65.9088928,0.632810789 L68.0387416,6.38865315 C68.1368956,6.6539248 68.3460543,6.86306415 68.6113066,6.96121815 L74.3670578,9.09106688 C75.2109806,9.40328343 75.2109806,10.5966763 74.3670578,10.9088929 L68.6113066,13.0387416 C68.3460543,13.1368956 68.1368956,13.3460544 68.0387416,13.6113066 L65.9088928,19.3670579 C65.5966763,20.2109807 64.4032834,20.2109807 64.0910668,19.3670579 L61.9612181,13.6113066 C61.8630641,13.3460544 61.6539247,13.1368956 61.3886531,13.0387416 L55.6328088,10.9088929 C54.7890629,10.5966763 54.7890639,9.40328343 55.6328107,9.09106688 L61.3886531,6.96121815 C61.6539247,6.86306415 61.8630641,6.6539248 61.9612181,6.38865315 L64.0910668,0.632808851 Z" id="Path" fill-rule="nonzero"></path>
                            <rect id="Rectangle" x="80" y="9" width="50" height="2"></rect>
                        </g>
                    </g>
                </g>
            </g>
        </g>
    </g>
</svg>