<?xml version="1.0" encoding="UTF-8"?>
<svg width="18px" height="14px" viewBox="0 0 18 14" version="1.1" xmlns="http://www.w3.org/2000/svg" xmlns:xlink="http://www.w3.org/1999/xlink">
    <title>Path</title>
    <g id="Beautiful-Beginnings-Final" stroke="none" stroke-width="1" fill="none" fill-rule="evenodd">
        <g id="Home---Desktop---Slide-1" transform="translate(-1105.000000, -5031.000000)" fill="#111111">
            <g id="Footer" transform="translate(0.000000, 4756.000000)">
                <g id="Contact" transform="translate(1046.000000, 54.000000)">
                    <g id="Group-29" transform="translate(52.000000, 212.000000)">
                        <path d="M24.237507,10.6625 C23.748963,11.377088 23.158331,11.985948 22.465611,12.489052 C22.472919,12.59114 22.476559,12.744272 22.476559,12.948448 C22.476559,13.89636 22.338015,14.842452 22.060927,15.786724 C21.783839,16.730996 21.362775,17.636964 20.797651,18.504684 C20.232555,19.372404 19.559911,20.139828 18.779691,20.80704 C17.999471,21.474224 17.058867,22.006504 15.957823,22.403908 C14.856751,22.801312 13.679183,23 12.425007,23 C10.448935,23 8.6406334,22.47136 7,21.414052 C7.25520964,21.443228 7.539581,21.457816 7.853125,21.457816 C9.493757,21.457816 10.955735,20.954684 12.239059,19.948448 C11.473427,19.93386 10.788015,19.698688 10.182823,19.24296 C9.5776002,18.787232 9.1619794,18.205728 8.9359382,17.498448 C9.1765646,17.534904 9.3989574,17.553132 9.603125,17.553132 C9.916655,17.553132 10.226559,17.513008 10.532823,17.432816 C9.7161414,17.265096 9.0398462,16.858592 8.5039066,16.213276 C7.967967,15.56796 7.6999986,14.818764 7.6999986,13.965632 L7.6999986,13.921868 C8.1958366,14.198956 8.7281222,14.348448 9.296875,14.370316 C8.8156222,14.049464 8.4328146,13.63022 8.1484382,13.1125 C7.8640618,12.59478 7.721875,12.033324 7.721875,11.4281236 C7.721875,10.786456 7.8822898,10.1921896 8.203125,9.6453132 C9.0854218,10.7317748 10.159107,11.601298 11.424231,12.253908 C12.689327,12.906504 14.043743,13.269272 15.487507,13.342184 C15.429155,13.065096 15.400007,12.795316 15.400007,12.532816 C15.400007,11.5557252 15.744519,10.7226608 16.433599,10.0335948 C17.122651,9.3445288 17.955735,9 18.932823,9 C19.953647,9 20.814059,9.3718708 21.514059,10.1156236 C22.308867,9.9625 23.056243,9.6781264 23.756243,9.2625 C23.486463,10.1010468 22.968743,10.7499972 22.203111,11.2093736 C22.881243,11.1364588 23.559375,10.9541676 24.237507,10.6625 Z" id="Path"></path>
                    </g>
                </g>
            </g>
        </g>
    </g>
</svg>